<svg width="2048" height="2048" xmlns="http://www.w3.org/2000/svg">
 <metadata id="metadata12">image/svg+xml</metadata>

 <g>
  <title>Layer 1</title>
  <g id="g4" transform="matrix(1,0,0,-1,0,2048) ">
   <path id="path6" d="m521,279l1008,0q8,97 -132,182q-132,101 -196.5,239.5t-79.5,308.5l-192,0q-15,-170 -79.5,-308.5t-196.5,-239.5q-141,-85 -132,-182zm504,-74l-578,0l0,74q-4,80 41.5,137t125.5,108q117,91 171.5,217.5t78.5,267.5l-287,0l284,239q-86,74 -86,188q0,103 73,177t177,74q103,0 176.5,-74t73.5,-177q0,-114 -86,-188l284,-239l-287,0q23,-141 78,-267.5t172,-217.5q79,-51 124.5,-108t42.5,-137l0,-74l-578,0zm-268,869l536,0l-225,191q134,31 134,171q0,76 -52.5,126.5t-124.5,50.5q-73,0 -125,-50.5t-52,-126.5q0,-140 134,-171l-225,-191z" fill="currentColor"/>
  </g>
  <path fill="#f9f9f9" stroke="#000000" stroke-width="0" stroke-linecap="round" stroke-miterlimit="3.8" stroke-dashoffset="0" id="path2989" d="m873.456787,881.347473c56.547913,-47.912476 103.901733,-90.22522 105.230652,-94.028381c1.328918,-3.803162 -13.559937,-14.11908 -33.086365,-22.924316c-152.251953,-68.656006 -108.093018,-302.536652 60.900818,-322.551453c35.535706,-4.20871 51.159363,-1.043243 90.959045,18.428955c129.278198,63.249878 132.256958,246.709656 4.937988,304.122498c-19.526367,8.805237 -34.415283,19.121155 -33.086304,22.924316c1.328857,3.803162 48.682617,46.115967 105.230591,94.028381l102.814331,87.113586l-253.357544,0l-253.357605,0l102.814392,-87.113586z"/>
  <path stroke="#000000" fill="#000000" stroke-width="0" stroke-linecap="round" stroke-miterlimit="3.8" stroke-dashoffset="0" id="path2991" d="m728.016968,989.039185c0,-4.082031 8.605469,-12.365234 19.123169,-18.407166c25.9505,-14.907166 219.065063,-171.253418 223.336609,-180.814148c1.875854,-4.198914 -8.881348,-10.472229 -23.904968,-13.940613c-15.02356,-3.468445 -27.315613,-9.484009 -27.315613,-13.368042c0,-3.884033 -11.904602,-12.922302 -26.454895,-20.084961c-60.699097,-29.880859 -88.580383,-143.617432 -53.914429,-219.933411c7.3255,-16.126862 14.062439,-32.619873 14.970886,-36.651154c2.707703,-12.013275 43.306152,-46.420044 54.773926,-46.420044c5.843506,0 10.624512,-3.642426 10.624512,-8.094238c0,-14.86615 100.326782,-30.165558 141.62738,-21.597565c62.113403,12.885834 142.988525,69.967377 154.516968,109.058167c24.162231,81.929382 23.790161,115.587402 -1.780029,161.010437c-19.533203,34.698853 -80.823608,87.167175 -112.69165,96.470825c-12.912109,3.769653 -22.018066,10.078369 -20.235474,14.019409c4.185547,9.254333 198.03833,165.910767 223.16626,180.345337c10.518066,6.041931 19.123535,14.325134 19.123535,18.407166c0,4.081909 -133.867554,7.421814 -297.483154,7.421814c-163.615723,0 -297.483032,-3.339905 -297.483032,-7.421814z"/>
  <path stroke="#000000" fill="#000000" stroke-width="0" stroke-linecap="round" stroke-miterlimit="3.8" stroke-dashoffset="0" id="path2993" d="m488.677917,1766.616089c0,-16.313232 27.825317,-74.443848 44.068481,-92.064209c8.665344,-9.400146 53.142395,-46.336792 98.837646,-82.081543c162.206299,-126.883911 247.739136,-274.284912 282.091492,-486.135986l11.637939,-71.771606l97.176514,0l97.176392,0l11.638184,71.771606c32.92041,203.02063 120.567017,359.720215 263.136597,470.450073c122.009644,94.761841 141.94751,117.042236 156.1427,174.489258l6.068848,24.560181l-533.987427,0c-360.933838,0 -533.987366,-2.987305 -533.987366,-9.217773z"/>
  <path stroke="#000000" d="m982,647c1,0 0.913208,-21.387573 9,-68.857117c12.873596,-75.568878 24.937988,-111.863464 31,-120.500031c6.976196,-9.939392 13.071777,-11.898895 18,-34.428558c3.056396,-13.971893 4,-17.214294 3,-17.214294l-3,0l-4,0" id="svg_1" stroke-linecap="round" stroke-width="0" fill="none"/>
 </g>
</svg>